<?xml version="1.0" encoding="utf-8"?>
<!-- Generator: Adobe Illustrator 16.0.4, SVG Export Plug-In . SVG Version: 6.00 Build 0)  -->
<!DOCTYPE svg PUBLIC "-//W3C//DTD SVG 1.1//EN" "http://www.w3.org/Graphics/SVG/1.1/DTD/svg11.dtd">
<svg version="1.1" id="Layer_1" xmlns="http://www.w3.org/2000/svg" xmlns:xlink="http://www.w3.org/1999/xlink" x="0px" y="0px"
	 width="50px" height="50px" viewBox="0 0 50 50" enable-background="new 0 0 50 50" xml:space="preserve">
<path fill="#fff" opacity="0.3" d="M36.042,11.099c-2.059-2.299-4.78-4.433-11.506-4.48c-2.628-0.021-6.639,0.601-9.76,3.901
	c-1.889,1.993-3.278,4.511-2.883,8.627c0.086,0.893,1.361,1.926,0.465,3.65c0,0-1.925,3.387-1.857,3.95c0,0-0.034,1.031,1.56,1.063
	c0,0,0.398,0.052,0.283,0.93l-0.019,1.28c0,0,0.051,0.381,0.748,0.612c0,0,0.133,0.133-0.065,0.384c0,0-0.367,0.409,0.265,1.294
	c0.234,0.323,0.614,0.729,0.382,1.562c0,0-0.299,1.608,0.332,1.992c0,0,0.717,0.852,3.604,0.496
	c1.009-0.124,2.872-0.613,3.982,0.782c0,0,2.655,5.045,2.857,6.239c0,0,4.531-8.067,10.061-9.312c0,0-1.347-3.038,1.394-6.973
	c0,0,3.436-4.532,3.537-7.022C39.42,20.074,40.326,15.879,36.042,11.099z M19.622,16.089c-0.196,0.071-0.327,0.258-0.329,0.466
	l-0.021,2.345c-3.946-0.232-3.91-1.97-3.569-4.179c0.271-1.754,1.636-3.194,3.646-4.112l-0.023,2.626
	c-0.002,0.208,0.126,0.396,0.32,0.471c0.194,0.076,0.413,0.022,0.554-0.134c0.392-0.44,0.941-0.691,1.515-0.691
	c0.006,0,0.011,0,0.017,0c1.12,0.01,2.024,0.931,2.015,2.053c-0.011,1.116-0.923,2.019-2.035,2.019c-0.007,0-0.013,0-0.018,0
	c-0.579-0.005-1.132-0.266-1.517-0.716C20.036,16.075,19.815,16.018,19.622,16.089z M31.733,22.32
	c-0.85-0.086-1.716-0.318-2.509-0.659c-2.068-0.887-2.641-3.245-5.891-2.912c-1.197,0.123-2.197,0.174-3.064,0.176l0.013-1.336
	c0.428,0.23,0.905,0.357,1.397,0.362c0.009,0,0.017,0,0.024,0c1.66,0,3.021-1.344,3.036-3.009c0.015-1.674-1.335-3.047-3.007-3.062
	c-0.475,0.002-0.972,0.115-1.402,0.338l0.019-2.009c1.626-0.549,3.564-0.797,5.65-0.647c2.146,0.151,4.154,0.786,5.833,1.747
	l-0.01,1.006c-0.428-0.231-0.905-0.358-1.398-0.362c-1.644,0.022-3.043,1.336-3.062,3.009c-0.008,0.812,0.303,1.576,0.87,2.155
	c0.568,0.578,1.327,0.9,2.139,0.906c0.509-0.013,0.972-0.114,1.401-0.338L31.733,22.32z M32.733,22.346l0.05-5.677
	c0.002-0.208-0.126-0.396-0.319-0.471s-0.413-0.022-0.555,0.134c-0.395,0.444-0.932,0.67-1.528,0.69
	c-0.543-0.004-1.053-0.221-1.433-0.607c-0.382-0.388-0.589-0.9-0.584-1.443c0.012-1.117,0.922-2.02,2.035-2.02
	c0.006,0,0.012,0,0.018,0c0.588,0.005,1.127,0.26,1.519,0.717c0.135,0.159,0.355,0.215,0.551,0.146
	c0.196-0.071,0.327-0.257,0.329-0.465l0.013-1.404c1.981,1.416,3.331,3.34,3.585,5.476C36.825,20.896,34.979,22.237,32.733,22.346z"
	/>
</svg>
