<?xml version="1.0" encoding="utf-8"?>
<!-- Generator: Adobe Illustrator 17.0.0, SVG Export Plug-In . SVG Version: 6.00 Build 0)  -->
<!DOCTYPE svg PUBLIC "-//W3C//DTD SVG 1.1//EN" "http://www.w3.org/Graphics/SVG/1.1/DTD/svg11.dtd">
<svg version="1.1" id="Capa_1" xmlns="http://www.w3.org/2000/svg" xmlns:xlink="http://www.w3.org/1999/xlink" x="0px" y="0px"
	 width="64px" height="64px" viewBox="0 0 64 64" enable-background="new 0 0 64 64" xml:space="preserve">
<g>
	<path fill="#00FF00" d="M28.568,41.414c0,0-1.92-6.951-1.566-12.195c0.025-0.374,0.021-0.67-0.001-0.921c0.055-0.759,0.093-1.526,0.093-2.31
		c0-10.489-5.102-18.993-11.395-18.993S4.303,15.498,4.303,25.988c0,2.112,0.215,4.137,0.597,6.035
		c0.024,0.286,0.084,0.62,0.23,1.069c0.008,0.024,0.014,0.05,0.022,0.075c0.091,0.37,0.195,0.727,0.299,1.085
		c1.155,4.785,0.609,14.086,0.609,14.086l0.014-0.039c-0.064,0.747-0.163,1.504-0.108,2.275c0.455,6.371,6.413,7.104,9.736,7.104
		c0.875,0,1.567-0.051,1.928-0.063c6.438-0.214,11.664-4.097,11.664-8.554c0-2.173-0.273-5.759-0.749-7.681L28.568,41.414z
		 M15.698,9.995c4.948,0,8.395,8.428,8.395,15.993c0,0.636-0.027,1.3-0.085,2.091l-0.017,0.238l0.02,0.238
		c0.01,0.12,0.009,0.275-0.003,0.462c0,0.001,0,0.002,0,0.003L21.76,25.6c-1.424-2.263-4.115-5.651-4.962-6.685
		c-0.93-1.135-0.52-2.899-0.52-2.899c-0.441-0.756-1.45,0-1.45,0c-0.252,1.702,0.518,1.323-1.702,4.349
		c-2.196,2.993-3.12,4.853-3.12,4.853c-1.108,2.451-1.771,4.598-2.123,6.481l-0.009-0.1l-0.034-0.167
		c-0.357-1.776-0.538-3.607-0.538-5.444C7.303,18.423,10.75,9.995,15.698,9.995z M17.53,54.616c-0.111,0.004-0.25,0.01-0.413,0.019
		c-0.36,0.018-0.852,0.043-1.415,0.043c-6.435,0-6.651-3.026-6.743-4.318c-0.027-0.384,0.018-0.866,0.065-1.375l0.039-0.431
		l0.583-6.857c0.913,1.179,1.779,1.674,1.779,1.674l1.071-1.198c-5.357-8.698,3.025-19.097,3.025-19.097
		c11.282,12.669,8.257,18.908,8.257,18.908l1.387,0.882c0.159-0.345,0.279-0.683,0.404-1.022l0.063,0.256
		c0.395,1.596,0.661,4.888,0.661,6.96C26.293,52.162,21.675,54.478,17.53,54.616z"/>
	<path fill="#00FF00" d="M49.619,6.995c-6.294,0-11.395,8.503-11.395,18.993c0,0.783,0.037,1.551,0.092,2.31c-0.022,0.251-0.026,0.548-0.001,0.921
		c0.355,5.245-1.566,12.195-1.566,12.195l0.023-0.035c-0.476,1.922-0.749,5.508-0.749,7.681c0,4.457,5.226,8.339,11.664,8.554
		c0.361,0.012,1.053,0.063,1.928,0.063c3.323,0,9.281-0.733,9.736-7.104c0.055-0.771-0.044-1.529-0.108-2.275l0.014,0.039
		c0,0-0.546-9.301,0.609-14.086c0.104-0.358,0.208-0.715,0.299-1.085c0.008-0.024,0.014-0.051,0.021-0.075
		c0.146-0.449,0.205-0.783,0.23-1.069c0.382-1.898,0.597-3.923,0.597-6.035C61.014,15.498,55.913,6.995,49.619,6.995z
		 M49.616,54.677c-0.563,0-1.056-0.025-1.416-0.043c-0.163-0.008-0.302-0.015-0.413-0.019c-4.145-0.138-8.764-2.453-8.764-5.555
		c0-2.072,0.266-5.364,0.661-6.96l0.063-0.256c0.126,0.339,0.246,0.677,0.404,1.022l1.387-0.882c0,0-3.025-6.24,8.257-18.908
		c0,0,8.383,10.4,3.025,19.097l1.071,1.198c0,0,0.865-0.494,1.776-1.67l0.586,6.854l0.039,0.43c0.048,0.51,0.093,0.991,0.065,1.376
		C56.267,51.651,56.051,54.677,49.616,54.677z M57.476,31.431l-0.034,0.167l-0.009,0.101c-0.352-1.883-1.016-4.031-2.123-6.481
		c0,0-0.924-1.86-3.12-4.853c-2.22-3.026-1.45-2.647-1.702-4.349c0,0-1.008-0.756-1.45,0c0,0,0.41,1.765-0.52,2.899
		c-0.885,1.081-3.783,4.731-5.146,6.982l-2.064,3.135c0-0.005-0.001-0.01-0.001-0.015c-0.013-0.187-0.014-0.342-0.003-0.462
		l0.02-0.237l-0.017-0.238c-0.058-0.791-0.085-1.456-0.085-2.091c0-7.564,3.448-15.993,8.395-15.993
		c4.948,0,8.395,8.428,8.395,15.993C58.014,27.824,57.833,29.656,57.476,31.431z"/>
</g>
</svg>
