<?xml version="1.0" encoding="iso-8859-1"?>
<!-- Generator: Adobe Illustrator 17.0.0, SVG Export Plug-In . SVG Version: 6.00 Build 0)  -->
<!DOCTYPE svg PUBLIC "-//W3C//DTD SVG 1.1//EN" "http://www.w3.org/Graphics/SVG/1.1/DTD/svg11.dtd">
<svg version="1.1" id="Capa_1" xmlns="http://www.w3.org/2000/svg" xmlns:xlink="http://www.w3.org/1999/xlink" x="0px" y="0px"
	 width="64px" height="64px" viewBox="0 0 64 64" style="enable-background:new 0 0 64 64;" xml:space="preserve">
<g>
	<path fill="#666" d="M56.911,22.033c0.071,0.114,0.139,0.229,0.199,0.35c0.068,0.139,0.13,0.28,0.183,0.427
		c0.022,0.059,0.039,0.122,0.059,0.184c0.117,0.384,0.188,0.787,0.188,1.208v27.346c0,0.423-0.071,0.829-0.189,1.215
		c-0.018,0.059-0.035,0.117-0.056,0.174c-0.054,0.153-0.119,0.301-0.19,0.445c-0.055,0.108-0.116,0.211-0.18,0.314
		c-0.066,0.108-0.127,0.22-0.203,0.321c1.742-0.335,3.07-1.874,3.07-3.711V25.443c0-1.837-1.328-3.378-3.07-3.712
		C56.791,21.827,56.848,21.932,56.911,22.033z"/>
	<path fill="#666" d="M7.086,54.017c-0.069-0.094-0.125-0.198-0.187-0.297c-0.074-0.118-0.145-0.238-0.206-0.363
		c-0.063-0.132-0.123-0.265-0.172-0.404c-0.026-0.07-0.047-0.144-0.07-0.218c-0.113-0.378-0.183-0.775-0.183-1.188V24.201
		c0-0.408,0.068-0.799,0.179-1.171c0.025-0.084,0.049-0.168,0.079-0.248c0.049-0.135,0.106-0.266,0.168-0.392
		c0.062-0.125,0.132-0.244,0.205-0.36c0.062-0.1,0.118-0.204,0.187-0.297c-1.741,0.333-3.069,1.875-3.069,3.712v24.862
		C4.017,52.143,5.345,53.681,7.086,54.017z"/>
	<path fill="#666" d="M55.872,53.385c0.033-0.044,0.06-0.093,0.087-0.141l0.061-0.101c0.05-0.081,0.098-0.158,0.139-0.24
		c0.048-0.098,0.096-0.207,0.137-0.32l0.042-0.133c0.094-0.306,0.142-0.61,0.142-0.901V24.202c0-0.289-0.047-0.591-0.141-0.899
		l-0.043-0.137c-0.039-0.108-0.086-0.214-0.137-0.317c-0.042-0.083-0.092-0.168-0.146-0.252l-0.066-0.11
		c-0.024-0.041-0.047-0.083-0.075-0.121l-0.523-0.703h-38.28L40.69,8.977c0.515-0.277,0.708-0.919,0.432-1.435
		c-0.277-0.516-0.921-0.711-1.435-0.432L12.589,21.663H8.457l-0.519,0.701C7.911,22.4,7.889,22.441,7.865,22.48L7.8,22.588
		c-0.055,0.088-0.108,0.177-0.155,0.271c-0.043,0.09-0.086,0.188-0.123,0.287c-0.022,0.059-0.037,0.113-0.053,0.167
		c-0.097,0.326-0.141,0.61-0.141,0.889v27.346c0,0.285,0.045,0.573,0.138,0.883l0.052,0.165c0.037,0.103,0.081,0.202,0.128,0.299
		c0.044,0.09,0.097,0.178,0.151,0.265l0.066,0.11c0.023,0.04,0.045,0.08,0.073,0.117l0.518,0.699h46.893L55.872,53.385z
		 M36.462,27.92c0-0.486,0.396-0.882,0.882-0.882h15.54c0.486,0,0.882,0.396,0.882,0.882v7.141c0,0.486-0.396,0.882-0.882,0.882
		h-15.54c-0.485,0-0.882-0.396-0.882-0.882V27.92z M50.238,38.756h-2.689c-0.416,0-0.755-0.337-0.755-0.755
		c0-0.416,0.339-0.755,0.755-0.755h2.689c0.416,0,0.755,0.339,0.755,0.755C50.994,38.418,50.654,38.756,50.238,38.756z
		 M50.994,40.521c0,0.416-0.339,0.756-0.755,0.756h-2.689c-0.416,0-0.755-0.34-0.755-0.756c0-0.418,0.339-0.757,0.755-0.757h2.689
		C50.654,39.764,50.994,40.104,50.994,40.521z M42.679,38.756H39.99c-0.418,0-0.756-0.337-0.756-0.755
		c0-0.416,0.337-0.755,0.756-0.755h2.688c0.416,0,0.756,0.339,0.756,0.755C43.435,38.418,43.095,38.756,42.679,38.756z
		 M43.435,40.521c0,0.416-0.34,0.756-0.756,0.756H39.99c-0.418,0-0.756-0.34-0.756-0.756c0-0.418,0.337-0.757,0.756-0.757h2.688
		C43.095,39.764,43.435,40.104,43.435,40.521z M30.758,27.411c0.391,0,0.707,0.317,0.707,0.707c0,0.39-0.316,0.706-0.707,0.706
		s-0.707-0.316-0.707-0.706C30.051,27.728,30.367,27.411,30.758,27.411z M30.535,32.18c0.391,0,0.707,0.317,0.707,0.707
		c0,0.39-0.316,0.707-0.707,0.707c-0.39,0-0.707-0.317-0.707-0.707C29.828,32.497,30.144,32.18,30.535,32.18z M25.99,39.246
		c0.39,0,0.707,0.316,0.707,0.706c0,0.391-0.316,0.707-0.707,0.707c-0.391,0-0.707-0.316-0.707-0.707
		C25.283,39.562,25.6,39.246,25.99,39.246z M25.506,35.183c0-0.39,0.317-0.707,0.707-0.707c0.39,0,0.707,0.316,0.707,0.707
		c0,0.39-0.317,0.707-0.707,0.707C25.823,35.89,25.506,35.573,25.506,35.183z M27.312,41.719c0.39,0,0.707,0.316,0.707,0.707
		c0,0.39-0.317,0.707-0.707,0.707c-0.391,0-0.706-0.317-0.706-0.707C26.606,42.035,26.922,41.719,27.312,41.719z M27.536,38.363
		c-0.391,0-0.707-0.317-0.707-0.707c0-0.39,0.316-0.707,0.707-0.707c0.39,0,0.707,0.317,0.707,0.707
		C28.243,38.046,27.926,38.363,27.536,38.363z M28.766,39.246c0.39,0,0.707,0.316,0.707,0.706c0,0.391-0.317,0.707-0.707,0.707
		c-0.391,0-0.706-0.316-0.706-0.707C28.06,39.562,28.375,39.246,28.766,39.246z M28.282,35.183c0-0.39,0.316-0.707,0.707-0.707
		c0.39,0,0.707,0.316,0.707,0.707c0,0.39-0.317,0.707-0.707,0.707C28.599,35.89,28.282,35.573,28.282,35.183z M30.088,41.719
		c0.391,0,0.707,0.316,0.707,0.707c0,0.39-0.316,0.707-0.707,0.707c-0.39,0-0.707-0.317-0.707-0.707
		C29.381,42.035,29.698,41.719,30.088,41.719z M30.311,38.363c-0.39,0-0.707-0.317-0.707-0.707c0-0.39,0.317-0.707,0.707-0.707
		c0.391,0,0.707,0.317,0.707,0.707C31.019,38.046,30.702,38.363,30.311,38.363z M29.212,29.707c0.39,0,0.707,0.317,0.707,0.707
		c0,0.39-0.317,0.707-0.707,0.707c-0.391,0-0.707-0.317-0.707-0.707C28.505,30.024,28.822,29.707,29.212,29.707z M27.982,27.411
		c0.39,0,0.707,0.317,0.707,0.707c0,0.39-0.316,0.706-0.707,0.706c-0.391,0-0.707-0.316-0.707-0.706
		C27.275,27.728,27.591,27.411,27.982,27.411z M27.759,32.18c0.39,0,0.707,0.317,0.707,0.707c0,0.39-0.317,0.707-0.707,0.707
		c-0.391,0-0.707-0.317-0.707-0.707C27.052,32.497,27.368,32.18,27.759,32.18z M26.436,29.707c0.39,0,0.707,0.317,0.707,0.707
		c0,0.39-0.317,0.707-0.707,0.707c-0.39,0-0.707-0.317-0.707-0.707C25.729,30.024,26.046,29.707,26.436,29.707z M25.206,27.411
		c0.39,0,0.707,0.317,0.707,0.707c0,0.39-0.316,0.706-0.707,0.706c-0.39,0-0.707-0.316-0.707-0.706
		C24.498,27.728,24.815,27.411,25.206,27.411z M24.982,32.18c0.39,0,0.707,0.317,0.707,0.707c0,0.39-0.317,0.707-0.707,0.707
		c-0.39,0-0.707-0.317-0.707-0.707C24.275,32.497,24.592,32.18,24.982,32.18z M24.759,36.949c0.39,0,0.707,0.317,0.707,0.707
		c0,0.39-0.317,0.707-0.707,0.707c-0.39,0-0.707-0.317-0.707-0.707C24.053,37.266,24.369,36.949,24.759,36.949z M25.243,42.425
		c0,0.39-0.316,0.707-0.707,0.707c-0.39,0-0.706-0.317-0.706-0.707c0-0.39,0.316-0.707,0.706-0.707
		C24.927,41.719,25.243,42.035,25.243,42.425z M23.345,29.707c0.391,0,0.707,0.317,0.707,0.707c0,0.39-0.316,0.707-0.707,0.707
		c-0.39,0-0.707-0.317-0.707-0.707C22.638,30.024,22.955,29.707,23.345,29.707z M23.829,35.183c0,0.39-0.316,0.707-0.707,0.707
		c-0.39,0-0.707-0.317-0.707-0.707c0-0.39,0.317-0.707,0.707-0.707C23.513,34.477,23.829,34.793,23.829,35.183z M22.115,27.411
		c0.391,0,0.707,0.317,0.707,0.707c0,0.39-0.316,0.706-0.707,0.706c-0.391,0-0.707-0.316-0.707-0.706
		C21.408,27.728,21.724,27.411,22.115,27.411z M21.892,32.18c0.391,0,0.707,0.317,0.707,0.707c0,0.39-0.316,0.707-0.707,0.707
		c-0.39,0-0.707-0.317-0.707-0.707C21.185,32.497,21.501,32.18,21.892,32.18z M11.795,39.246c0.39,0,0.707,0.316,0.707,0.706
		c0,0.391-0.317,0.707-0.707,0.707c-0.391,0-0.707-0.316-0.707-0.707C11.088,39.562,11.404,39.246,11.795,39.246z M11.311,35.183
		c0-0.39,0.316-0.707,0.707-0.707c0.39,0,0.707,0.316,0.707,0.707c0,0.39-0.316,0.707-0.707,0.707
		C11.627,35.89,11.311,35.573,11.311,35.183z M13.117,41.719c0.391,0,0.707,0.316,0.707,0.707c0,0.39-0.316,0.707-0.707,0.707
		c-0.39,0-0.707-0.317-0.707-0.707C12.41,42.035,12.727,41.719,13.117,41.719z M13.34,38.363c-0.39,0-0.707-0.317-0.707-0.707
		c0-0.39,0.316-0.707,0.707-0.707c0.391,0,0.707,0.317,0.707,0.707C14.047,38.046,13.731,38.363,13.34,38.363z M14.571,39.246
		c0.391,0,0.707,0.316,0.707,0.706c0,0.391-0.316,0.707-0.707,0.707c-0.39,0-0.707-0.316-0.707-0.707
		C13.864,39.562,14.181,39.246,14.571,39.246z M14.087,35.183c0-0.39,0.316-0.707,0.707-0.707c0.391,0,0.707,0.316,0.707,0.707
		c0,0.39-0.316,0.707-0.707,0.707C14.403,35.89,14.087,35.573,14.087,35.183z M15.894,41.719c0.39,0,0.707,0.316,0.707,0.707
		c0,0.39-0.316,0.707-0.707,0.707c-0.391,0-0.707-0.317-0.707-0.707C15.186,42.035,15.503,41.719,15.894,41.719z M16.116,38.363
		c-0.39,0-0.707-0.317-0.707-0.707c0-0.39,0.316-0.707,0.707-0.707s0.707,0.317,0.707,0.707
		C16.823,38.046,16.506,38.363,16.116,38.363z M17.347,39.246c0.39,0,0.707,0.316,0.707,0.706c0,0.391-0.316,0.707-0.707,0.707
		c-0.391,0-0.707-0.316-0.707-0.707C16.64,39.562,16.956,39.246,17.347,39.246z M16.863,35.183c0-0.39,0.316-0.707,0.707-0.707
		c0.39,0,0.707,0.316,0.707,0.707c0,0.39-0.317,0.707-0.707,0.707C17.18,35.89,16.863,35.573,16.863,35.183z M18.669,41.719
		c0.391,0,0.707,0.316,0.707,0.707c0,0.39-0.316,0.707-0.707,0.707c-0.391,0-0.707-0.317-0.707-0.707
		C17.963,42.035,18.279,41.719,18.669,41.719z M18.893,38.363c-0.391,0-0.707-0.317-0.707-0.707c0-0.39,0.317-0.707,0.707-0.707
		c0.39,0,0.707,0.317,0.707,0.707C19.6,38.046,19.283,38.363,18.893,38.363z M20.123,39.246c0.391,0,0.707,0.316,0.707,0.706
		c0,0.391-0.316,0.707-0.707,0.707c-0.391,0-0.707-0.316-0.707-0.707C19.416,39.562,19.732,39.246,20.123,39.246z M19.64,35.183
		c0-0.39,0.316-0.707,0.707-0.707c0.39,0,0.707,0.316,0.707,0.707c0,0.39-0.317,0.707-0.707,0.707
		C19.956,35.89,19.64,35.573,19.64,35.183z M21.445,41.719c0.391,0,0.707,0.316,0.707,0.707c0,0.39-0.316,0.707-0.707,0.707
		c-0.39,0-0.707-0.317-0.707-0.707C20.739,42.035,21.055,41.719,21.445,41.719z M21.668,38.363c-0.39,0-0.707-0.317-0.707-0.707
		c0-0.39,0.317-0.707,0.707-0.707c0.391,0,0.707,0.317,0.707,0.707C22.375,38.046,22.059,38.363,21.668,38.363z M20.569,29.707
		c0.39,0,0.707,0.317,0.707,0.707c0,0.39-0.317,0.707-0.707,0.707c-0.391,0-0.707-0.317-0.707-0.707
		C19.862,30.024,20.179,29.707,20.569,29.707z M19.339,27.411c0.39,0,0.706,0.317,0.706,0.707c0,0.39-0.316,0.706-0.706,0.706
		c-0.391,0-0.707-0.316-0.707-0.706C18.632,27.728,18.948,27.411,19.339,27.411z M19.116,32.18c0.39,0,0.707,0.317,0.707,0.707
		c0,0.39-0.317,0.707-0.707,0.707c-0.391,0-0.707-0.317-0.707-0.707C18.409,32.497,18.725,32.18,19.116,32.18z M17.793,29.707
		c0.39,0,0.707,0.317,0.707,0.707c0,0.39-0.317,0.707-0.707,0.707c-0.39,0-0.707-0.317-0.707-0.707
		C17.086,30.024,17.403,29.707,17.793,29.707z M16.562,27.411c0.39,0,0.707,0.317,0.707,0.707c0,0.39-0.317,0.706-0.707,0.706
		c-0.39,0-0.707-0.316-0.707-0.706C15.855,27.728,16.172,27.411,16.562,27.411z M16.339,32.18c0.39,0,0.707,0.317,0.707,0.707
		c0,0.39-0.317,0.707-0.707,0.707c-0.39,0-0.707-0.317-0.707-0.707C15.632,32.497,15.949,32.18,16.339,32.18z M15.017,29.707
		c0.391,0,0.707,0.317,0.707,0.707c0,0.39-0.316,0.707-0.707,0.707c-0.39,0-0.707-0.317-0.707-0.707
		C14.31,30.024,14.626,29.707,15.017,29.707z M13.786,27.411c0.391,0,0.707,0.317,0.707,0.707c0,0.39-0.316,0.706-0.707,0.706
		c-0.39,0-0.707-0.316-0.707-0.706C13.079,27.728,13.396,27.411,13.786,27.411z M13.563,32.18c0.391,0,0.707,0.317,0.707,0.707
		c0,0.39-0.316,0.707-0.707,0.707c-0.39,0-0.707-0.317-0.707-0.707C12.856,32.497,13.173,32.18,13.563,32.18z M12.241,29.707
		c0.39,0,0.707,0.317,0.707,0.707c0,0.39-0.317,0.707-0.707,0.707c-0.391,0-0.706-0.317-0.706-0.707
		C11.534,30.024,11.85,29.707,12.241,29.707z M11.01,27.411c0.39,0,0.707,0.317,0.707,0.707c0,0.39-0.317,0.706-0.707,0.706
		c-0.391,0-0.707-0.316-0.707-0.706C10.304,27.728,10.62,27.411,11.01,27.411z M10.787,32.18c0.391,0,0.707,0.317,0.707,0.707
		c0,0.39-0.316,0.707-0.707,0.707c-0.391,0-0.706-0.317-0.706-0.707C10.081,32.497,10.396,32.18,10.787,32.18z M10.564,36.949
		c0.39,0,0.707,0.317,0.707,0.707c0,0.39-0.316,0.707-0.707,0.707c-0.391,0-0.707-0.317-0.707-0.707
		C9.857,37.266,10.173,36.949,10.564,36.949z M10.341,41.719c0.39,0,0.707,0.316,0.707,0.707c0,0.39-0.317,0.707-0.707,0.707
		c-0.391,0-0.707-0.317-0.707-0.707C9.634,42.035,9.951,41.719,10.341,41.719z M10.118,47.901c-0.391,0-0.707-0.316-0.707-0.707
		c0-0.391,0.316-0.707,0.707-0.707c0.39,0,0.707,0.316,0.707,0.707C10.825,47.585,10.508,47.901,10.118,47.901z M11.349,50.198
		c-0.391,0-0.707-0.317-0.707-0.707c0-0.39,0.316-0.707,0.707-0.707c0.39,0,0.707,0.317,0.707,0.707
		C12.056,49.881,11.739,50.198,11.349,50.198z M11.572,45.428c-0.391,0-0.707-0.316-0.707-0.707c0-0.39,0.316-0.707,0.707-0.707
		c0.39,0,0.707,0.317,0.707,0.707C12.279,45.112,11.962,45.428,11.572,45.428z M12.894,47.901c-0.39,0-0.707-0.316-0.707-0.707
		c0-0.391,0.317-0.707,0.707-0.707c0.391,0,0.707,0.316,0.707,0.707C13.601,47.585,13.285,47.901,12.894,47.901z M14.124,50.198
		c-0.39,0-0.707-0.317-0.707-0.707c0-0.39,0.317-0.707,0.707-0.707c0.391,0,0.707,0.317,0.707,0.707
		C14.831,49.881,14.515,50.198,14.124,50.198z M14.348,45.428c-0.39,0-0.707-0.316-0.707-0.707c0-0.39,0.317-0.707,0.707-0.707
		c0.391,0,0.707,0.317,0.707,0.707C15.055,45.112,14.738,45.428,14.348,45.428z M15.67,47.901c-0.39,0-0.707-0.316-0.707-0.707
		c0-0.391,0.317-0.707,0.707-0.707c0.39,0,0.707,0.316,0.707,0.707C16.377,47.585,16.06,47.901,15.67,47.901z M16.901,50.198
		c-0.39,0-0.707-0.317-0.707-0.707c0-0.39,0.317-0.707,0.707-0.707c0.39,0,0.707,0.317,0.707,0.707
		C17.608,49.881,17.291,50.198,16.901,50.198z M17.124,45.428c-0.39,0-0.707-0.316-0.707-0.707c0-0.39,0.317-0.707,0.707-0.707
		c0.39,0,0.707,0.317,0.707,0.707C17.831,45.112,17.514,45.428,17.124,45.428z M18.447,47.901c-0.391,0-0.707-0.316-0.707-0.707
		c0-0.391,0.316-0.707,0.707-0.707c0.39,0,0.707,0.316,0.707,0.707C19.153,47.585,18.837,47.901,18.447,47.901z M19.677,50.198
		c-0.391,0-0.707-0.317-0.707-0.707c0-0.39,0.316-0.707,0.707-0.707c0.39,0,0.707,0.317,0.707,0.707
		C20.384,49.881,20.067,50.198,19.677,50.198z M19.9,45.428c-0.391,0-0.707-0.316-0.707-0.707c0-0.39,0.316-0.707,0.707-0.707
		c0.39,0,0.707,0.317,0.707,0.707C20.607,45.112,20.29,45.428,19.9,45.428z M21.222,47.901c-0.39,0-0.707-0.316-0.707-0.707
		c0-0.391,0.316-0.707,0.707-0.707c0.391,0,0.707,0.316,0.707,0.707C21.929,47.585,21.613,47.901,21.222,47.901z M22.453,50.198
		c-0.39,0-0.707-0.317-0.707-0.707c0-0.39,0.317-0.707,0.707-0.707c0.391,0,0.707,0.317,0.707,0.707
		C23.16,49.881,22.844,50.198,22.453,50.198z M22.676,45.428c-0.39,0-0.707-0.316-0.707-0.707c0-0.39,0.316-0.707,0.707-0.707
		c0.391,0,0.707,0.317,0.707,0.707C23.383,45.112,23.067,45.428,22.676,45.428z M22.899,40.659c-0.39,0-0.707-0.316-0.707-0.707
		c0-0.39,0.316-0.706,0.707-0.706c0.391,0,0.707,0.316,0.707,0.706C23.606,40.343,23.29,40.659,22.899,40.659z M24.313,47.901
		c-0.39,0-0.707-0.316-0.707-0.707c0-0.391,0.317-0.707,0.707-0.707c0.39,0,0.707,0.316,0.707,0.707
		C25.02,47.585,24.704,47.901,24.313,47.901z M25.544,50.198c-0.39,0-0.707-0.317-0.707-0.707c0-0.39,0.317-0.707,0.707-0.707
		c0.39,0,0.707,0.317,0.707,0.707C26.251,49.881,25.934,50.198,25.544,50.198z M25.767,45.428c-0.39,0-0.707-0.316-0.707-0.707
		c0-0.39,0.317-0.707,0.707-0.707c0.39,0,0.706,0.317,0.706,0.707C26.474,45.112,26.157,45.428,25.767,45.428z M27.09,47.901
		c-0.391,0-0.707-0.316-0.707-0.707c0-0.391,0.316-0.707,0.707-0.707c0.39,0,0.707,0.316,0.707,0.707
		C27.796,47.585,27.48,47.901,27.09,47.901z M28.32,50.198c-0.391,0-0.707-0.317-0.707-0.707c0-0.39,0.316-0.707,0.707-0.707
		c0.39,0,0.707,0.317,0.707,0.707C29.027,49.881,28.71,50.198,28.32,50.198z M28.543,45.428c-0.391,0-0.707-0.316-0.707-0.707
		c0-0.39,0.316-0.707,0.707-0.707c0.39,0,0.707,0.317,0.707,0.707C29.25,45.112,28.934,45.428,28.543,45.428z M29.865,47.901
		c-0.39,0-0.706-0.316-0.706-0.707c0-0.391,0.316-0.707,0.706-0.707c0.391,0,0.707,0.316,0.707,0.707
		C30.572,47.585,30.256,47.901,29.865,47.901z M31.096,50.198c-0.39,0-0.707-0.317-0.707-0.707c0-0.39,0.317-0.707,0.707-0.707
		c0.391,0,0.706,0.317,0.706,0.707C31.803,49.881,31.487,50.198,31.096,50.198z M31.319,45.428c-0.39,0-0.706-0.316-0.706-0.707
		c0-0.39,0.316-0.707,0.706-0.707c0.391,0,0.707,0.317,0.707,0.707C32.026,45.112,31.71,45.428,31.319,45.428z M31.542,40.659
		c-0.39,0-0.707-0.316-0.707-0.707c0-0.39,0.317-0.706,0.707-0.706c0.391,0,0.707,0.316,0.707,0.706
		C32.249,40.343,31.933,40.659,31.542,40.659z M31.765,35.89c-0.39,0-0.707-0.317-0.707-0.707c0-0.39,0.317-0.707,0.707-0.707
		c0.391,0,0.707,0.316,0.707,0.707C32.472,35.573,32.156,35.89,31.765,35.89z M31.988,31.121c-0.39,0-0.707-0.317-0.707-0.707
		c0-0.39,0.317-0.707,0.707-0.707c0.391,0,0.706,0.317,0.706,0.707C32.695,30.804,32.379,31.121,31.988,31.121z M38.122,47.967
		c-1.073,0-1.945-0.872-1.945-1.946c0-1.072,0.872-1.944,1.945-1.944c1.073,0,1.944,0.872,1.944,1.944
		C40.066,47.096,39.195,47.967,38.122,47.967z M45.304,50.054c-2.089,0-3.78-1.691-3.78-3.78c0-2.086,1.691-3.78,3.78-3.78
		c2.086,0,3.78,1.693,3.78,3.78C49.083,48.362,47.39,50.054,45.304,50.054z M52.107,47.967c-1.074,0-1.946-0.872-1.946-1.946
		c0-1.072,0.872-1.944,1.946-1.944c1.072,0,1.944,0.872,1.944,1.944C54.051,47.096,53.18,47.967,52.107,47.967z"/>
</g>
</svg>
